<?xml version="1.0" encoding="UTF-8"?>
<svg xmlns="http://www.w3.org/2000/svg" version="1.1" viewBox="0 0 92 38">
  <defs>
    <style>
      .cls-1 {
        stroke: #000;
        stroke-width: 2px;
      }

      .cls-1, .cls-2 {
        fill: none;
      }

      .cls-3, .cls-4, .cls-5 {
        isolation: isolate;
      }

      .cls-3, .cls-5 {
        font-family: GillSans, 'Gill Sans';
        font-size: 18.5px;
      }

      .cls-5 {
        letter-spacing: .1em;
      }
    </style>
  </defs>
  <!-- Generator: Adobe Illustrator 28.6.0, SVG Export Plug-In . SVG Version: 1.2.0 Build 709)  -->
  <g>
    <g id="Layer_1">
      <g id="Layer_1-2" data-name="Layer_1">
        <g id="Rectangle_6">
          <rect class="cls-2" width="92" height="38"/>
          <rect class="cls-1" x="1" y="1" width="90" height="36"/>
        </g>
        <g>
          <g id="travel-fly" class="cls-4">
            <g class="cls-4">
              <text class="cls-3" transform="translate(20.7 15.3)"><tspan x="0" y="0">travel</tspan></text>
              <text class="cls-5" transform="translate(20.7 31)"><tspan x="0" y="0" xml:space="preserve">    fly</tspan></text>
            </g>
          </g>
          <g id="g4">
            <path id="path6" d="M41.5,17.9c0,.8-.7,1.8-2,3.1l-3.2,3.2,1.9,9.9h0c0,.2,0,.3,0,.4l-.8.8s-.2,0-.3,0c-.2,0-.3,0-.4-.2l-3.6-7.6-3.2,3.2c.6,2.1.9,3.2.9,3.3s0,.2-.1.3l-.8.8s-.2,0-.3,0-.3,0-.4-.2l-2-3.7-3.7-2c-.1,0-.2-.2-.2-.4s0-.2.1-.3l.8-.9s.2-.1.3-.1,1.2.3,3.3.9l3.2-3.2-7.6-3.6c-.2,0-.2-.2-.2-.4s0-.2.1-.3l.8-.8s.2-.1.3-.1,0,0,0,0l9.9,1.9,3.2-3.2c1.3-1.3,2.4-2,3.1-2s.5,0,.7.3.3.4.3.7Z"/>
          </g>
        </g>
      </g>
    </g>
  </g>
</svg>